<svg xmlns="http://www.w3.org/2000/svg" viewBox="0 0 2000 2000"><defs><style>.cls-1,.cls-2,.cls-3{fill:none;stroke-linejoin:round;stroke-width:30px;}.cls-1{stroke:#363636;}.cls-2{stroke:#63b8ff;}.cls-3{stroke:#f55656;}.cls-4{fill:#f9bc60;}</style></defs><title>123LeadMagnets</title><g id="Short_Magnet_Inner" data-name="Short Magnet Inner"><path class="cls-1" d="M610.25,889.67H490.33s-98.83-.21-101.83,106.56S490.33,1103,490.33,1103H610.25"/></g><g id="Short_Magnet_Outer" data-name="Short Magnet Outer"><path class="cls-1" d="M610.25,1216.33H490.33S273,1238,273,1000,490.33,775.77,490.33,775.77H610.25"/></g><g id="Bottom_Magnet_Cap" data-name="Bottom Magnet Cap"><polyline class="cls-2" points="641 1103 744 1103 744 1216.33 641 1216.33"/></g><g id="Top_Magnet_CAp" data-name="Top Magnet CAp"><polyline class="cls-3" points="641 775.76 744 775.76 744 889.67 641 889.67"/></g><g id="_3" data-name="3"><path class="cls-4" d="M1611.24,998.76q-27.75-33.5-79.43-46.26l82.94-84.22V775.77H1295a159.92,159.92,0,0,1,49.47,44.45,140.52,140.52,0,0,1,25.94,69.12h70.77l-65.72,67v92.52h59.34q53,0,53,30.63,0,16.59-16,25.52t-42.11,8.93a232.2,232.2,0,0,1-48.29-5.29v120.68a436,436,0,0,0,53.39,3.28q68.27,0,114.21-21.69t68-56.46q22-34.77,22-75Q1639,1032.26,1611.24,998.76Z"/></g><g id="_2" data-name="2"><path class="cls-4" d="M1210.86,1105.64l63.8-58.07q45.3-40.81,60.93-73.06a156.47,156.47,0,0,0,15.64-69.22q0-41.47-23-73.38t-63.81-49.13q-40.85-17.22-93.79-17.22-67.26,0-115.4,26V907.88l35.65,17.82a71.2,71.2,0,0,1,27.43-30.62,72.48,72.48,0,0,1,38.28-10.85q21.06,0,32.22,9.25T1200,919.33q0,13.39-7,27.43t-28.07,33.82L1055.26,1082v140.4h306.17V1105.64Z"/></g><g id="_1" data-name="1"><path class="cls-4" d="M1035.26,775.77V1222.4H884.68V889.34H808.11V775.77Z"/></g></svg>